<svg width="147" height="97" viewBox="0 0 147 97" fill="none" xmlns="http://www.w3.org/2000/svg">
<g clip-path="url(#clip0_501_346)">
<path d="M0.196273 0H146.414V83.1275H0.196273V0Z" fill="#9ECBF4"/>
<path d="M0.196273 17.6777L146.414 63.6318V83.1275L0 83.1275L0.196273 17.6777Z" fill="#84C764"/>
<path d="M128.311 74.076C129.704 71.9871 144.858 31.5652 135.11 32.9578C128.147 34.3503 115.496 45.2689 110.74 46.187C105.985 47.1051 90.5916 25.325 84.9781 27.3875C79.3646 29.4499 91.3863 51.433 86.3707 56.631C79.6366 63.6098 78.0154 60.8085 73.1414 55.9347C69.4606 52.254 55.4867 29.0726 50.8607 27.3875C47.748 27.3016 58.1841 47.1064 54.3421 48.9721C49.5886 51.2806 38.1435 59.6197 32.7575 62.8976L81.4967 79.6079L128.311 74.076Z" fill="#896427"/>
<path d="M138.059 83.1276L0.196273 83.1275L25.7949 55.2387L138.059 83.1276Z" fill="#F0D661"/>
<path d="M135.033 37.3718C134.56 35.7244 123.798 43.092 119.067 46.9818C116.702 48.3547 121.227 50.8676 123.206 51.7868C126.163 53.1596 130.302 53.8461 131.485 53.8461C132.667 53.8461 135.624 39.4311 135.033 37.3718Z" fill="#FF808D"/>
<path d="M87.8214 33.1351C88.472 30.869 98.1409 41.8772 101.689 44.7945C103.463 45.8241 100.388 48.2828 98.9037 48.9721C96.6863 50.0018 93.9882 50.0062 92.6372 49.6684C89.8521 48.9721 87.3779 34.6795 87.8214 33.1351Z" fill="#FF808D"/>
<path d="M105.342 94.9263C100.581 91.3174 88.4596 74.7343 87.7633 67.0753C96.8149 68.4679 129.704 70.5946 129.007 72.6834C126.918 78.9499 110.904 99.1419 105.342 94.9263Z" fill="#896427"/>
<path d="M102.311 70.6971C102.235 72.0876 102.464 72.9937 104 73.0772C105.536 73.1606 106.52 72.3174 106.52 70.2285C106.52 68 105.976 67.4098 104.585 67.3342C102.769 67.2355 102.394 69.1612 102.311 70.6971Z" fill="#2B251D"/>
<path d="M117.429 71.9492C117.259 73.3314 116.527 74.2632 115 74.076C113.473 73.8887 113.244 72.8348 113.367 70.7496C113.5 68.5 114.397 68.07 115.779 68.2395C117.585 68.4609 117.616 70.4225 117.429 71.9492Z" fill="#2B251D"/>
<path d="M97.1024 85.5C100.584 90.3739 101.059 91.9283 104.5 95C107.861 98 110 96 112.5 94C115 92 116.559 90.2719 119.344 86.7906L97.1024 85.5Z" fill="#2B251D"/>
<path d="M6.23633 22.18C6.23633 21.82 6.23966 21.37 6.24633 20.83C6.25966 20.2833 6.27299 19.6833 6.28633 19.03C6.30633 18.37 6.32633 17.6833 6.34633 16.97C6.36633 16.25 6.38966 15.53 6.41633 14.81C6.44299 14.0833 6.46966 13.3867 6.49633 12.72C6.52299 12.0533 6.54966 11.4433 6.57633 10.89C6.60299 10.3367 6.62966 9.87 6.65633 9.49C7.16299 9.38333 7.70633 9.29667 8.28633 9.23C8.87299 9.16333 9.52966 9.13 10.2563 9.13C11.0897 9.13 11.8097 9.24333 12.4163 9.47C13.023 9.69 13.4897 10.0367 13.8163 10.51C14.143 10.9833 14.3063 11.59 14.3063 12.33C14.3063 13.1833 14.143 13.8933 13.8163 14.46C13.4963 15.02 13.0197 15.4367 12.3863 15.71C11.7597 15.9833 10.9863 16.12 10.0663 16.12C9.81966 16.12 9.54633 16.11 9.24633 16.09C8.953 16.0633 8.68633 16.0267 8.44633 15.98C8.43966 16.1867 8.42966 16.52 8.41633 16.98C8.40299 17.4333 8.38633 17.96 8.36633 18.56C8.35299 19.16 8.33966 19.78 8.32633 20.42C8.31299 21.06 8.30633 21.6633 8.30633 22.23C8.19299 22.23 8.043 22.2267 7.85633 22.22C7.66966 22.22 7.47299 22.2167 7.26633 22.21C7.06633 22.21 6.87299 22.2033 6.68633 22.19C6.50633 22.1833 6.35633 22.18 6.23633 22.18ZM8.43633 14.29C8.65633 14.3233 8.90299 14.3533 9.17633 14.38C9.44966 14.4067 9.72633 14.42 10.0063 14.42C10.4463 14.42 10.863 14.36 11.2563 14.24C11.6497 14.1133 11.9697 13.9033 12.2163 13.61C12.4697 13.3167 12.5963 12.91 12.5963 12.39C12.5963 11.7233 12.393 11.2633 11.9863 11.01C11.5863 10.7567 11.0563 10.63 10.3963 10.63C10.143 10.63 9.85966 10.6433 9.54633 10.67C9.23299 10.6967 8.88633 10.7333 8.50633 10.78C8.50633 10.82 8.50299 10.9567 8.49633 11.19C8.49633 11.4167 8.49299 11.6867 8.48633 12C8.48633 12.3133 8.48299 12.6333 8.47633 12.96C8.46966 13.28 8.46299 13.5633 8.45633 13.81C8.44966 14.0567 8.44299 14.2167 8.43633 14.29ZM21.274 22.37C20.1273 22.37 19.2273 22.0733 18.574 21.48C17.9273 20.88 17.4507 20.0467 17.144 18.98C16.9107 18.22 16.7573 17.3333 16.684 16.32C16.6173 15.3 16.584 14.1733 16.584 12.94C16.584 12.5867 16.5873 12.2067 16.594 11.8C16.6073 11.3933 16.6207 10.9867 16.634 10.58C16.6473 10.1667 16.6607 9.77667 16.674 9.41C16.6873 9.04333 16.7007 8.73 16.714 8.47C16.8807 8.45 17.0507 8.43333 17.224 8.42C17.3973 8.40667 17.5673 8.4 17.734 8.4C17.9607 8.4 18.184 8.41 18.404 8.43C18.624 8.44333 18.814 8.46 18.974 8.48C18.9273 9.02667 18.884 9.62667 18.844 10.28C18.804 10.9267 18.774 11.58 18.754 12.24C18.7407 12.9 18.734 13.52 18.734 14.1C18.734 14.84 18.7573 15.5067 18.804 16.1C18.8573 16.6867 18.9373 17.2033 19.044 17.65C19.2373 18.4767 19.5307 19.09 19.924 19.49C20.324 19.8833 20.834 20.08 21.454 20.08C22.0407 20.08 22.514 19.8733 22.874 19.46C23.234 19.04 23.494 18.4367 23.654 17.65C23.8207 16.8567 23.904 15.9033 23.904 14.79C23.904 14.49 23.9007 14.1367 23.894 13.73C23.8873 13.3233 23.874 12.89 23.854 12.43C23.8407 11.97 23.8207 11.51 23.794 11.05C23.774 10.59 23.7473 10.16 23.714 9.76C23.6807 9.35333 23.644 9.00333 23.604 8.71C23.7773 8.71 23.9707 8.71667 24.184 8.73C24.3973 8.74333 24.6107 8.76 24.824 8.78C25.0373 8.8 25.2273 8.82333 25.394 8.85C25.5673 8.87 25.6907 8.89 25.764 8.91C25.824 9.29667 25.874 9.73667 25.914 10.23C25.954 10.7167 25.984 11.2233 26.004 11.75C26.0307 12.2767 26.044 12.7933 26.044 13.3C26.044 14.6067 25.9807 15.8133 25.854 16.92C25.7273 18.02 25.4973 18.98 25.164 19.8C24.8307 20.6133 24.3507 21.2467 23.724 21.7C23.0973 22.1467 22.2807 22.37 21.274 22.37ZM29.5929 22.3C29.5529 21.9667 29.5029 21.4933 29.4429 20.88C29.3896 20.26 29.3262 19.56 29.2529 18.78C29.1796 17.9933 29.1062 17.1767 29.0329 16.33C28.9662 15.4767 28.8962 14.64 28.8229 13.82C28.7562 13 28.6929 12.2467 28.6329 11.56C28.5796 10.8733 28.5329 10.3033 28.4929 9.85C28.4596 9.39667 28.4429 9.11667 28.4429 9.01C28.6362 8.97667 28.9162 8.94 29.2829 8.9C29.6562 8.86 30.0529 8.82667 30.4729 8.8C30.8929 8.76667 31.2729 8.75 31.6129 8.75C32.7996 8.75 33.7929 8.90667 34.5929 9.22C35.3929 9.53333 36.0296 9.98667 36.5029 10.58C36.9762 11.1733 37.3162 11.8933 37.5229 12.74C37.7296 13.5867 37.8329 14.54 37.8329 15.6C37.8329 16.8467 37.6762 17.8933 37.3629 18.74C37.0496 19.5867 36.5629 20.2667 35.9029 20.78C35.2429 21.2867 34.3896 21.66 33.3429 21.9C32.3029 22.1333 31.0529 22.2667 29.5929 22.3ZM31.4429 20.24C32.5362 20.1667 33.4029 19.9567 34.0429 19.61C34.6829 19.2567 35.1429 18.7533 35.4229 18.1C35.7029 17.44 35.8429 16.6167 35.8429 15.63C35.8429 14.6167 35.7129 13.7233 35.4529 12.95C35.1996 12.1767 34.7696 11.5733 34.1629 11.14C33.5562 10.7 32.7262 10.48 31.6729 10.48C31.5129 10.48 31.3462 10.4833 31.1729 10.49C30.9996 10.4967 30.8329 10.5033 30.6729 10.51C30.7396 11.5167 30.8129 12.5833 30.8929 13.71C30.9796 14.83 31.0662 15.95 31.1529 17.07C31.2462 18.1833 31.3429 19.24 31.4429 20.24ZM41.5655 22.3C41.5255 21.9667 41.4755 21.4933 41.4155 20.88C41.3622 20.26 41.2989 19.56 41.2255 18.78C41.1522 17.9933 41.0789 17.1767 41.0055 16.33C40.9389 15.4767 40.8689 14.64 40.7955 13.82C40.7289 13 40.6655 12.2467 40.6055 11.56C40.5522 10.8733 40.5055 10.3033 40.4655 9.85C40.4322 9.39667 40.4155 9.11667 40.4155 9.01C40.6089 8.97667 40.8889 8.94 41.2555 8.9C41.6289 8.86 42.0255 8.82667 42.4455 8.8C42.8655 8.76667 43.2455 8.75 43.5855 8.75C44.7722 8.75 45.7655 8.90667 46.5655 9.22C47.3655 9.53333 48.0022 9.98667 48.4755 10.58C48.9489 11.1733 49.2889 11.8933 49.4955 12.74C49.7022 13.5867 49.8055 14.54 49.8055 15.6C49.8055 16.8467 49.6489 17.8933 49.3355 18.74C49.0222 19.5867 48.5355 20.2667 47.8755 20.78C47.2155 21.2867 46.3622 21.66 45.3155 21.9C44.2755 22.1333 43.0255 22.2667 41.5655 22.3ZM43.4155 20.24C44.5089 20.1667 45.3755 19.9567 46.0155 19.61C46.6555 19.2567 47.1155 18.7533 47.3955 18.1C47.6755 17.44 47.8155 16.6167 47.8155 15.63C47.8155 14.6167 47.6855 13.7233 47.4255 12.95C47.1722 12.1767 46.7422 11.5733 46.1355 11.14C45.5289 10.7 44.6989 10.48 43.6455 10.48C43.4855 10.48 43.3189 10.4833 43.1455 10.49C42.9722 10.4967 42.8055 10.5033 42.6455 10.51C42.7122 11.5167 42.7855 12.5833 42.8655 13.71C42.9522 14.83 43.0389 15.95 43.1255 17.07C43.2189 18.1833 43.3155 19.24 43.4155 20.24ZM52.8982 21.87C52.9249 21.5033 52.9449 21 52.9582 20.36C52.9715 19.72 52.9815 19.0033 52.9882 18.21C53.0015 17.41 53.0082 16.5833 53.0082 15.73C53.0082 14.87 53.0015 14.0233 52.9882 13.19C52.9815 12.3567 52.9715 11.5867 52.9582 10.88C52.9449 10.1667 52.9249 9.57333 52.8982 9.1C53.0115 9.08667 53.1849 9.07 53.4182 9.05C53.6582 9.03 53.8982 9.02 54.1382 9.02C54.2982 9.02 54.4715 9.02667 54.6582 9.04C54.8515 9.05333 54.9849 9.06667 55.0582 9.08C55.0782 9.55333 55.0949 10.1233 55.1082 10.79C55.1215 11.45 55.1282 12.1633 55.1282 12.93C55.1349 13.69 55.1315 14.4633 55.1182 15.25C55.1049 16.0367 55.0915 16.7933 55.0782 17.52C55.0715 18.02 55.0615 18.4767 55.0482 18.89C55.0349 19.2967 55.0182 19.6233 54.9982 19.87C55.4582 19.8433 55.9782 19.8167 56.5582 19.79C57.1449 19.7633 57.7482 19.74 58.3682 19.72C58.9882 19.7 59.5882 19.69 60.1682 19.69C60.1749 19.8167 60.1815 19.9967 60.1882 20.23C60.1949 20.4633 60.1982 20.7067 60.1982 20.96C60.1982 21.2133 60.1949 21.4367 60.1882 21.63C59.4415 21.7033 58.7249 21.7633 58.0382 21.81C57.3582 21.85 56.7115 21.8767 56.0982 21.89C55.5315 21.91 54.9815 21.9167 54.4482 21.91C53.9215 21.9033 53.4049 21.89 52.8982 21.87ZM69.2076 22.11C68.4876 22.07 67.7842 22.0333 67.0976 22C66.4176 21.9733 65.7142 21.9533 64.9876 21.94C64.5609 21.9267 64.1142 21.9133 63.6476 21.9C63.1809 21.8867 62.7342 21.8767 62.3076 21.87C62.2676 20.8233 62.2376 19.79 62.2176 18.77C62.2042 17.75 62.1976 16.78 62.1976 15.86C62.1976 14.2 62.2076 12.8267 62.2276 11.74C62.2542 10.6467 62.2809 9.89667 62.3076 9.49C63.5009 9.29 64.6076 9.14 65.6276 9.04C66.6476 8.93333 67.5009 8.86333 68.1876 8.83C68.8742 8.79 69.3076 8.77 69.4876 8.77C69.4876 9.07 69.4776 9.35 69.4576 9.61C69.4442 9.86333 69.4242 10.14 69.3976 10.44L64.3076 10.85C64.2942 11.0033 64.2842 11.2267 64.2776 11.52C64.2709 11.8133 64.2642 12.1267 64.2576 12.46C64.2509 12.7933 64.2442 13.1067 64.2376 13.4C64.2376 13.6933 64.2376 13.9133 64.2376 14.06C64.3909 14.06 64.6176 14.0567 64.9176 14.05C65.2176 14.0367 65.5542 14.0267 65.9276 14.02C66.3009 14.0067 66.6742 13.9967 67.0476 13.99C67.4276 13.9767 67.7742 13.9667 68.0876 13.96C68.4076 13.9533 68.6576 13.95 68.8376 13.95L68.8676 15.71C68.7676 15.71 68.5676 15.7067 68.2676 15.7C67.9676 15.6933 67.6142 15.69 67.2076 15.69C66.8076 15.6833 66.4009 15.68 65.9876 15.68C65.5742 15.6733 65.2042 15.67 64.8776 15.67C64.5576 15.67 64.3309 15.67 64.1976 15.67C64.1909 15.7567 64.1876 15.93 64.1876 16.19C64.1876 16.4433 64.1876 16.7433 64.1876 17.09C64.1876 17.4367 64.1842 17.7933 64.1776 18.16C64.1776 18.5267 64.1776 18.8733 64.1776 19.2C64.1776 19.52 64.1776 19.78 64.1776 19.98C64.3242 19.9733 64.5842 19.97 64.9576 19.97C65.3309 19.9633 65.6809 19.96 66.0076 19.96C66.4476 19.96 66.8876 19.9667 67.3276 19.98C67.7676 19.9933 68.1742 20.01 68.5476 20.03C68.9209 20.0433 69.2176 20.06 69.4376 20.08C69.4309 20.2467 69.4176 20.4367 69.3976 20.65C69.3842 20.8567 69.3642 21.06 69.3376 21.26C69.3176 21.46 69.2942 21.6367 69.2676 21.79C69.2476 21.9433 69.2276 22.05 69.2076 22.11ZM76.2579 22.12C75.6312 22.12 75.0346 22.03 74.4679 21.85C73.9079 21.6633 73.3912 21.4233 72.9179 21.13C72.4512 20.83 72.0446 20.5033 71.6979 20.15C71.3512 19.7967 71.0879 19.45 70.9079 19.11C70.9479 19.0567 71.0246 18.9767 71.1379 18.87C71.2512 18.7567 71.3812 18.64 71.5279 18.52C71.6746 18.3933 71.8179 18.2767 71.9579 18.17C72.1046 18.0567 72.2246 17.9733 72.3179 17.92C72.4646 18.1267 72.6579 18.3733 72.8979 18.66C73.1379 18.9467 73.4212 19.23 73.7479 19.51C74.0812 19.7833 74.4579 20.0133 74.8779 20.2C75.3046 20.38 75.7712 20.47 76.2779 20.47C76.9179 20.47 77.4346 20.35 77.8279 20.11C78.2212 19.8633 78.5079 19.56 78.6879 19.2C78.8679 18.8333 78.9579 18.47 78.9579 18.11C78.9579 17.77 78.8679 17.47 78.6879 17.21C78.5079 16.95 78.2612 16.72 77.9479 16.52C77.6346 16.3133 77.2712 16.1267 76.8579 15.96C76.4446 15.7933 76.0079 15.64 75.5479 15.5C74.7612 15.2533 74.0679 14.9733 73.4679 14.66C72.8679 14.3467 72.3979 13.9567 72.0579 13.49C71.7179 13.0233 71.5479 12.4367 71.5479 11.73C71.5479 11.01 71.7446 10.4133 72.1379 9.94C72.5312 9.46 73.0546 9.10333 73.7079 8.87C74.3612 8.63 75.0679 8.51 75.8279 8.51C76.5279 8.51 77.1812 8.60333 77.7879 8.79C78.4012 8.97667 78.9346 9.21 79.3879 9.49C79.8412 9.76333 80.1779 10.0433 80.3979 10.33C80.3379 10.4233 80.2412 10.5567 80.1079 10.73C79.9746 10.9033 79.8346 11.0733 79.6879 11.24C79.5479 11.4067 79.4246 11.5367 79.3179 11.63C79.1379 11.43 78.8779 11.21 78.5379 10.97C78.2046 10.7233 77.8012 10.5133 77.3279 10.34C76.8612 10.16 76.3246 10.07 75.7179 10.07C75.0512 10.07 74.5179 10.23 74.1179 10.55C73.7179 10.8633 73.5179 11.2867 73.5179 11.82C73.5179 12.1067 73.5879 12.3533 73.7279 12.56C73.8679 12.7667 74.0512 12.9433 74.2779 13.09C74.5046 13.23 74.7546 13.3533 75.0279 13.46C75.3012 13.5667 75.5746 13.6567 75.8479 13.73C76.5079 13.93 77.1412 14.14 77.7479 14.36C78.3612 14.58 78.9079 14.8433 79.3879 15.15C79.8746 15.4567 80.2579 15.8367 80.5379 16.29C80.8179 16.7367 80.9579 17.2867 80.9579 17.94C80.9579 18.4867 80.8512 19.01 80.6379 19.51C80.4246 20.01 80.1146 20.4567 79.7079 20.85C79.3079 21.2433 78.8179 21.5533 78.2379 21.78C77.6579 22.0067 76.9979 22.12 76.2579 22.12Z" fill="#896427"/>
<path d="M89.872 20.14C89.772 20.46 89.6186 20.7967 89.412 21.15C89.2053 21.4967 88.9186 21.79 88.552 22.03C88.1853 22.2767 87.712 22.4 87.132 22.4C86.3853 22.4 85.792 22.2367 85.352 21.91C84.9186 21.5833 84.6086 21.1533 84.422 20.62C84.2353 20.0867 84.142 19.5067 84.142 18.88C84.142 18.5533 84.1453 18.1667 84.152 17.72C84.1653 17.2733 84.1786 16.81 84.192 16.33C84.2053 15.85 84.2186 15.3867 84.232 14.94C84.252 14.4867 84.2686 14.09 84.282 13.75C84.2953 13.4033 84.3053 13.1467 84.312 12.98C83.6586 13.0467 83.092 13.12 82.612 13.2C82.1386 13.2733 81.8353 13.33 81.702 13.37C81.662 13.1567 81.6286 12.9333 81.602 12.7C81.582 12.46 81.5653 12.2433 81.552 12.05C81.5453 11.8567 81.542 11.7267 81.542 11.66C81.9153 11.6067 82.3486 11.55 82.842 11.49C83.342 11.43 83.8353 11.3833 84.322 11.35C84.3286 11.09 84.332 10.77 84.332 10.39C84.332 10.0033 84.332 9.64 84.332 9.3C84.3253 9.01333 84.312 8.73667 84.292 8.47C84.272 8.19667 84.2553 7.97 84.242 7.79L86.122 7.68C86.1353 7.78 86.1486 8.02 86.162 8.4C86.182 8.77333 86.192 9.22667 86.192 9.76C86.192 9.96 86.192 10.2033 86.192 10.49C86.192 10.77 86.192 11.02 86.192 11.24C86.392 11.2267 86.6386 11.2133 86.932 11.2C87.2253 11.1867 87.462 11.18 87.642 11.18C87.9553 11.1733 88.2553 11.17 88.542 11.17C88.8286 11.17 89.0753 11.1733 89.282 11.18C89.4886 11.1867 89.6153 11.1933 89.662 11.2C89.6953 11.38 89.7153 11.63 89.722 11.95C89.7353 12.27 89.742 12.5367 89.742 12.75C89.6753 12.7433 89.4453 12.74 89.052 12.74C88.6653 12.7333 88.282 12.7333 87.902 12.74C87.6286 12.7467 87.3286 12.76 87.002 12.78C86.6753 12.7933 86.3953 12.8067 86.162 12.82C86.1553 12.9933 86.142 13.25 86.122 13.59C86.1086 13.93 86.0953 14.3133 86.082 14.74C86.0686 15.16 86.0553 15.59 86.042 16.03C86.0286 16.4633 86.0186 16.87 86.012 17.25C86.0053 17.6233 86.002 17.9267 86.002 18.16C86.002 18.58 86.0253 18.98 86.072 19.36C86.1253 19.74 86.2453 20.0533 86.432 20.3C86.6253 20.54 86.9286 20.66 87.342 20.66C87.622 20.66 87.8486 20.56 88.022 20.36C88.1953 20.16 88.3286 19.93 88.422 19.67C88.522 19.41 88.5953 19.1933 88.642 19.02C88.702 19.0867 88.7886 19.1767 88.902 19.29C89.022 19.3967 89.1486 19.51 89.282 19.63C89.422 19.75 89.5453 19.8567 89.652 19.95C89.7653 20.0433 89.8386 20.1067 89.872 20.14ZM93.7004 13.14C93.9004 12.8 94.1904 12.49 94.5704 12.21C94.9571 11.93 95.3904 11.7067 95.8704 11.54C96.3571 11.3733 96.8437 11.29 97.3304 11.29C97.6437 11.29 97.9604 11.32 98.2804 11.38C98.6004 11.4333 98.8504 11.51 99.0304 11.61L98.6304 13.62C98.4704 13.5533 98.2637 13.4833 98.0104 13.41C97.7637 13.33 97.4571 13.29 97.0904 13.29C96.6971 13.29 96.3037 13.3633 95.9104 13.51C95.5237 13.65 95.1671 13.8433 94.8404 14.09C94.5137 14.3367 94.2404 14.62 94.0204 14.94C94.1137 15.4067 94.2037 15.9767 94.2904 16.65C94.3837 17.3233 94.4671 18.0133 94.5404 18.72C94.6137 19.4267 94.6737 20.0733 94.7204 20.66C94.7671 21.24 94.7904 21.6767 94.7904 21.97C94.5037 21.9967 94.1537 22.0133 93.7404 22.02C93.3271 22.0267 92.9471 22.0267 92.6004 22.02C92.6004 21.4 92.5871 20.7467 92.5604 20.06C92.5337 19.3667 92.4904 18.66 92.4304 17.94C92.3771 17.2133 92.3071 16.49 92.2204 15.77C92.1337 15.05 92.0304 14.3533 91.9104 13.68C91.7971 13 91.6671 12.3567 91.5204 11.75C91.7004 11.6967 91.9104 11.6433 92.1504 11.59C92.3971 11.5367 92.6237 11.49 92.8304 11.45C93.0371 11.41 93.1771 11.3867 93.2504 11.38C93.3371 11.6067 93.4271 11.9 93.5204 12.26C93.6137 12.62 93.6737 12.9133 93.7004 13.14ZM109.513 19.77C109.38 19.9567 109.183 20.1733 108.923 20.42C108.663 20.66 108.34 20.8933 107.953 21.12C107.566 21.34 107.116 21.5233 106.603 21.67C106.09 21.8167 105.51 21.89 104.863 21.89C103.863 21.89 102.986 21.6867 102.233 21.28C101.48 20.8733 100.896 20.28 100.483 19.5C100.07 18.7133 99.863 17.7567 99.863 16.63C99.863 15.55 100.086 14.6133 100.533 13.82C100.986 13.0267 101.606 12.4133 102.393 11.98C103.18 11.5467 104.083 11.33 105.103 11.33C106.383 11.33 107.38 11.72 108.093 12.5C108.813 13.28 109.213 14.3267 109.293 15.64C109.306 15.8533 109.313 16.06 109.313 16.26C109.313 16.4533 109.303 16.6533 109.283 16.86C109.196 16.8533 109.016 16.8467 108.743 16.84C108.476 16.8267 108.163 16.8167 107.803 16.81C107.443 16.7967 107.08 16.7867 106.713 16.78C106.353 16.7667 106.043 16.76 105.783 16.76C105.11 16.76 104.42 16.7933 103.713 16.86C103.006 16.9267 102.376 17.0033 101.823 17.09C101.83 17.2633 101.846 17.4333 101.873 17.6C101.9 17.7667 101.933 17.9267 101.973 18.08C102.086 18.4867 102.293 18.84 102.593 19.14C102.893 19.4333 103.25 19.66 103.663 19.82C104.083 19.98 104.526 20.06 104.993 20.06C105.486 20.06 105.916 19.9867 106.283 19.84C106.65 19.6933 106.963 19.5133 107.223 19.3C107.49 19.0867 107.703 18.8833 107.863 18.69C108.03 18.4967 108.156 18.3533 108.243 18.26C108.283 18.2933 108.36 18.3667 108.473 18.48C108.593 18.5867 108.72 18.7167 108.853 18.87C108.993 19.0233 109.123 19.18 109.243 19.34C109.37 19.4933 109.46 19.6367 109.513 19.77ZM101.853 15.75C102.333 15.67 102.896 15.6 103.543 15.54C104.196 15.48 104.936 15.45 105.763 15.45C106.196 15.45 106.563 15.4567 106.863 15.47C107.17 15.4767 107.383 15.4867 107.503 15.5C107.503 15.28 107.476 15.0467 107.423 14.8C107.35 14.4667 107.216 14.1433 107.023 13.83C106.83 13.5167 106.566 13.2567 106.233 13.05C105.906 12.8367 105.493 12.73 104.993 12.73C104.42 12.73 103.896 12.8533 103.423 13.1C102.956 13.34 102.583 13.6867 102.303 14.14C102.023 14.5867 101.873 15.1233 101.853 15.75ZM115.458 22.21C114.625 22.21 113.868 22.1 113.188 21.88C112.515 21.6533 111.978 21.2933 111.578 20.8C111.178 20.3 110.978 19.6367 110.978 18.81C110.978 18.0167 111.202 17.36 111.648 16.84C112.095 16.32 112.698 15.9367 113.458 15.69C114.225 15.4367 115.082 15.31 116.028 15.31C116.468 15.31 116.898 15.3433 117.318 15.41C117.738 15.47 118.102 15.5433 118.408 15.63C118.715 15.71 118.922 15.7733 119.028 15.82C119.008 15.6 118.968 15.3767 118.908 15.15C118.855 14.9167 118.772 14.7133 118.658 14.54C118.405 14.0933 118.035 13.7267 117.548 13.44C117.068 13.1467 116.465 13 115.738 13C114.972 13 114.322 13.1667 113.788 13.5C113.255 13.8267 112.855 14.2167 112.588 14.67L110.968 13.6C111.262 13.1667 111.648 12.7833 112.128 12.45C112.608 12.1167 113.162 11.8533 113.788 11.66C114.415 11.4667 115.088 11.37 115.808 11.37C116.928 11.37 117.855 11.5833 118.588 12.01C119.322 12.4367 119.858 13 120.198 13.7C120.372 14.0533 120.508 14.44 120.608 14.86C120.708 15.28 120.768 15.8 120.788 16.42C120.802 17.0733 120.815 17.63 120.828 18.09C120.848 18.55 120.868 18.9467 120.888 19.28C120.922 19.7133 120.988 19.9933 121.088 20.12C121.188 20.2467 121.332 20.31 121.518 20.31C121.732 20.31 121.912 20.22 122.058 20.04C122.205 19.8533 122.288 19.5933 122.308 19.26L123.268 20.32C123.228 20.88 123.032 21.3067 122.678 21.6C122.325 21.8933 121.912 22.04 121.438 22.04C121.065 22.04 120.735 21.97 120.448 21.83C120.168 21.6833 119.945 21.4967 119.778 21.27C119.612 21.0433 119.515 20.81 119.488 20.57C119.355 20.8167 119.095 21.0667 118.708 21.32C118.328 21.5733 117.858 21.7867 117.298 21.96C116.745 22.1267 116.132 22.21 115.458 22.21ZM115.818 20.64C116.252 20.64 116.675 20.5733 117.088 20.44C117.502 20.3067 117.882 20.13 118.228 19.91C118.582 19.69 118.872 19.4467 119.098 19.18C119.092 18.7667 119.092 18.4 119.098 18.08C119.105 17.7533 119.115 17.4533 119.128 17.18C118.935 17.1133 118.565 17.0267 118.018 16.92C117.472 16.8067 116.855 16.75 116.168 16.75C115.575 16.75 115.035 16.83 114.548 16.99C114.068 17.1433 113.685 17.3667 113.398 17.66C113.118 17.9533 112.978 18.3067 112.978 18.72C112.978 19.22 113.098 19.61 113.338 19.89C113.585 20.1633 113.922 20.3567 114.348 20.47C114.775 20.5833 115.265 20.64 115.818 20.64ZM130.536 20.14C130.436 20.46 130.283 20.7967 130.076 21.15C129.869 21.4967 129.583 21.79 129.216 22.03C128.849 22.2767 128.376 22.4 127.796 22.4C127.049 22.4 126.456 22.2367 126.016 21.91C125.583 21.5833 125.273 21.1533 125.086 20.62C124.899 20.0867 124.806 19.5067 124.806 18.88C124.806 18.5533 124.809 18.1667 124.816 17.72C124.829 17.2733 124.843 16.81 124.856 16.33C124.869 15.85 124.883 15.3867 124.896 14.94C124.916 14.4867 124.933 14.09 124.946 13.75C124.959 13.4033 124.969 13.1467 124.976 12.98C124.323 13.0467 123.756 13.12 123.276 13.2C122.803 13.2733 122.499 13.33 122.366 13.37C122.326 13.1567 122.293 12.9333 122.266 12.7C122.246 12.46 122.229 12.2433 122.216 12.05C122.209 11.8567 122.206 11.7267 122.206 11.66C122.579 11.6067 123.013 11.55 123.506 11.49C124.006 11.43 124.499 11.3833 124.986 11.35C124.993 11.09 124.996 10.77 124.996 10.39C124.996 10.0033 124.996 9.64 124.996 9.3C124.989 9.01333 124.976 8.73667 124.956 8.47C124.936 8.19667 124.919 7.97 124.906 7.79L126.786 7.68C126.799 7.78 126.813 8.02 126.826 8.4C126.846 8.77333 126.856 9.22667 126.856 9.76C126.856 9.96 126.856 10.2033 126.856 10.49C126.856 10.77 126.856 11.02 126.856 11.24C127.056 11.2267 127.303 11.2133 127.596 11.2C127.889 11.1867 128.126 11.18 128.306 11.18C128.619 11.1733 128.919 11.17 129.206 11.17C129.493 11.17 129.739 11.1733 129.946 11.18C130.153 11.1867 130.279 11.1933 130.326 11.2C130.359 11.38 130.379 11.63 130.386 11.95C130.399 12.27 130.406 12.5367 130.406 12.75C130.339 12.7433 130.109 12.74 129.716 12.74C129.329 12.7333 128.946 12.7333 128.566 12.74C128.293 12.7467 127.993 12.76 127.666 12.78C127.339 12.7933 127.059 12.8067 126.826 12.82C126.819 12.9933 126.806 13.25 126.786 13.59C126.773 13.93 126.759 14.3133 126.746 14.74C126.733 15.16 126.719 15.59 126.706 16.03C126.693 16.4633 126.683 16.87 126.676 17.25C126.669 17.6233 126.666 17.9267 126.666 18.16C126.666 18.58 126.689 18.98 126.736 19.36C126.789 19.74 126.909 20.0533 127.096 20.3C127.289 20.54 127.593 20.66 128.006 20.66C128.286 20.66 128.513 20.56 128.686 20.36C128.859 20.16 128.993 19.93 129.086 19.67C129.186 19.41 129.259 19.1933 129.306 19.02C129.366 19.0867 129.453 19.1767 129.566 19.29C129.686 19.3967 129.813 19.51 129.946 19.63C130.086 19.75 130.209 19.8567 130.316 19.95C130.429 20.0433 130.503 20.1067 130.536 20.14ZM135.832 22.81C135.212 22.81 134.595 22.7233 133.982 22.55C133.368 22.3767 132.808 22.1467 132.302 21.86C131.802 21.5667 131.402 21.2433 131.102 20.89C131.148 20.7967 131.215 20.67 131.302 20.51C131.388 20.35 131.488 20.1833 131.602 20.01C131.715 19.83 131.828 19.6667 131.942 19.52C132.055 19.3667 132.155 19.25 132.242 19.17C132.528 19.49 132.872 19.8 133.272 20.1C133.672 20.3933 134.102 20.6333 134.562 20.82C135.022 21 135.482 21.09 135.942 21.09C136.382 21.09 136.778 21.0267 137.132 20.9C137.492 20.7667 137.775 20.5767 137.982 20.33C138.195 20.0833 138.302 19.7867 138.302 19.44C138.302 19.04 138.175 18.6967 137.922 18.41C137.668 18.1167 137.328 17.86 136.902 17.64C136.475 17.4133 136.005 17.2067 135.492 17.02C134.872 16.7933 134.305 16.5467 133.792 16.28C133.285 16.0067 132.878 15.6667 132.572 15.26C132.272 14.8533 132.122 14.3367 132.122 13.71C132.122 13.07 132.302 12.5367 132.662 12.11C133.028 11.6833 133.508 11.36 134.102 11.14C134.702 10.92 135.348 10.81 136.042 10.81C136.815 10.81 137.525 10.91 138.172 11.11C138.825 11.3033 139.325 11.53 139.672 11.79C139.645 11.9033 139.588 12.0533 139.502 12.24C139.415 12.42 139.315 12.6033 139.202 12.79C139.088 12.9767 138.972 13.1467 138.852 13.3C138.532 13.0867 138.142 12.8833 137.682 12.69C137.222 12.4967 136.722 12.4 136.182 12.4C135.822 12.4 135.475 12.4433 135.142 12.53C134.808 12.61 134.535 12.7467 134.322 12.94C134.108 13.1333 134.002 13.3967 134.002 13.73C134.002 14.0167 134.105 14.2733 134.312 14.5C134.525 14.7267 134.812 14.93 135.172 15.11C135.532 15.2833 135.938 15.45 136.392 15.61C136.938 15.7967 137.445 16.0067 137.912 16.24C138.378 16.4667 138.782 16.73 139.122 17.03C139.468 17.3233 139.738 17.6633 139.932 18.05C140.125 18.43 140.222 18.86 140.222 19.34C140.222 20.1067 140.025 20.7467 139.632 21.26C139.238 21.7733 138.712 22.16 138.052 22.42C137.392 22.68 136.652 22.81 135.832 22.81Z" fill="#C27D0C"/>
</g>
<defs>
<clipPath id="clip0_501_346">
<rect width="147" height="97" fill="white"/>
</clipPath>
</defs>
</svg>
